<?xml version="1.0" encoding="UTF-8" standalone="no"?><svg xmlns="http://www.w3.org/2000/svg" xmlns:xlink="http://www.w3.org/1999/xlink" contentStyleType="text/css" height="415px" preserveAspectRatio="none" style="width:1051px;height:415px;background:#FFFFFF;" version="1.1" viewBox="0 0 1051 415" width="1051px" zoomAndPan="magnify"><defs/><g><!--MD5=[dd6f0fbd4f45e5ee36d89a4344f439d9]
class Gare--><g id="elem_Gare"><rect codeLine="3" fill="#F1F1F1" height="145.7813" id="Gare" rx="2.5" ry="2.5" style="stroke:#181818;stroke-width:0.5;" width="171" x="671.5" y="7"/><ellipse cx="736.25" cy="23" fill="#ADD1B2" rx="11" ry="11" style="stroke:#181818;stroke-width:1.0;"/><path d="M739.2188,28.6406 Q738.6406,28.9375 738,29.0781 Q737.3594,29.2344 736.6563,29.2344 Q734.1563,29.2344 732.8281,27.5938 Q731.5156,25.9375 731.5156,22.8125 Q731.5156,19.6875 732.8281,18.0313 Q734.1563,16.375 736.6563,16.375 Q737.3594,16.375 738,16.5313 Q738.6563,16.6875 739.2188,16.9844 L739.2188,19.7031 Q738.5938,19.125 738,18.8594 Q737.4063,18.5781 736.7813,18.5781 Q735.4375,18.5781 734.75,19.6563 Q734.0625,20.7188 734.0625,22.8125 Q734.0625,24.9063 734.75,25.9844 Q735.4375,27.0469 736.7813,27.0469 Q737.4063,27.0469 738,26.7813 Q738.5938,26.5 739.2188,25.9219 L739.2188,28.6406 Z " fill="#000000"/><text fill="#000000" font-family="sans-serif" font-size="14" lengthAdjust="spacing" textLength="33" x="756.75" y="27.8467">Gare</text><line style="stroke:#181818;stroke-width:0.5;" x1="672.5" x2="841.5" y1="39" y2="39"/><ellipse cx="682.5" cy="52.6484" fill="none" rx="3" ry="3" style="stroke:#038048;stroke-width:1.0;"/><text fill="#000000" font-family="sans-serif" font-size="14" lengthAdjust="spacing" textLength="120" x="691.5" y="55.9951">id_gare : int «PK»</text><ellipse cx="682.5" cy="68.9453" fill="none" rx="3" ry="3" style="stroke:#038048;stroke-width:1.0;"/><text fill="#000000" font-family="sans-serif" font-size="14" lengthAdjust="spacing" textLength="84" x="691.5" y="72.292">nom : String</text><ellipse cx="682.5" cy="85.2422" fill="none" rx="3" ry="3" style="stroke:#038048;stroke-width:1.0;"/><text fill="#000000" font-family="sans-serif" font-size="14" lengthAdjust="spacing" textLength="124" x="691.5" y="88.5889">localisation : Point</text><ellipse cx="682.5" cy="101.5391" fill="none" rx="3" ry="3" style="stroke:#038048;stroke-width:1.0;"/><text fill="#000000" font-family="sans-serif" font-size="14" lengthAdjust="spacing" textLength="145" x="691.5" y="104.8857">équipements : Text[]</text><ellipse cx="682.5" cy="117.8359" fill="none" rx="3" ry="3" style="stroke:#038048;stroke-width:1.0;"/><text fill="#000000" font-family="sans-serif" font-size="14" lengthAdjust="spacing" textLength="92" x="691.5" y="121.1826">nb_quais : int</text><ellipse cx="682.5" cy="134.1328" fill="none" rx="3" ry="3" style="stroke:#038048;stroke-width:1.0;"/><text fill="#000000" font-family="sans-serif" font-size="14" lengthAdjust="spacing" textLength="123" x="691.5" y="137.4795">capacité_max : int</text><line style="stroke:#181818;stroke-width:0.5;" x1="672.5" x2="841.5" y1="144.7813" y2="144.7813"/></g><!--MD5=[c4d7de58b6b74e0d187415ecc51ab732]
class Ligne--><g id="elem_Ligne"><rect codeLine="12" fill="#F1F1F1" height="96.8906" id="Ligne" rx="2.5" ry="2.5" style="stroke:#181818;stroke-width:0.5;" width="150" x="300" y="31.5"/><ellipse cx="352.25" cy="47.5" fill="#ADD1B2" rx="11" ry="11" style="stroke:#181818;stroke-width:1.0;"/><path d="M355.2188,53.1406 Q354.6406,53.4375 354,53.5781 Q353.3594,53.7344 352.6563,53.7344 Q350.1563,53.7344 348.8281,52.0938 Q347.5156,50.4375 347.5156,47.3125 Q347.5156,44.1875 348.8281,42.5313 Q350.1563,40.875 352.6563,40.875 Q353.3594,40.875 354,41.0313 Q354.6563,41.1875 355.2188,41.4844 L355.2188,44.2031 Q354.5938,43.625 354,43.3594 Q353.4063,43.0781 352.7813,43.0781 Q351.4375,43.0781 350.75,44.1563 Q350.0625,45.2188 350.0625,47.3125 Q350.0625,49.4063 350.75,50.4844 Q351.4375,51.5469 352.7813,51.5469 Q353.4063,51.5469 354,51.2813 Q354.5938,51 355.2188,50.4219 L355.2188,53.1406 Z " fill="#000000"/><text fill="#000000" font-family="sans-serif" font-size="14" lengthAdjust="spacing" textLength="37" x="372.75" y="52.3467">Ligne</text><line style="stroke:#181818;stroke-width:0.5;" x1="301" x2="449" y1="63.5" y2="63.5"/><ellipse cx="311" cy="77.1484" fill="none" rx="3" ry="3" style="stroke:#038048;stroke-width:1.0;"/><text fill="#000000" font-family="sans-serif" font-size="14" lengthAdjust="spacing" textLength="122" x="320" y="80.4951">id_ligne : int «PK»</text><ellipse cx="311" cy="93.4453" fill="none" rx="3" ry="3" style="stroke:#038048;stroke-width:1.0;"/><text fill="#000000" font-family="sans-serif" font-size="14" lengthAdjust="spacing" textLength="124" x="320" y="96.792">nom_ligne : String</text><ellipse cx="311" cy="109.7422" fill="none" rx="3" ry="3" style="stroke:#038048;stroke-width:1.0;"/><text fill="#000000" font-family="sans-serif" font-size="14" lengthAdjust="spacing" textLength="123" x="320" y="113.0889">type_ligne : String</text><line style="stroke:#181818;stroke-width:0.5;" x1="301" x2="449" y1="120.3906" y2="120.3906"/></g><!--MD5=[ff74e0f0bb3fa51f8c743cb54bdb5b13]
class Train--><g id="elem_Train"><rect codeLine="18" fill="#F1F1F1" height="129.4844" id="Train" rx="2.5" ry="2.5" style="stroke:#181818;stroke-width:0.5;" width="200" x="32" y="15.5"/><ellipse cx="110.75" cy="31.5" fill="#ADD1B2" rx="11" ry="11" style="stroke:#181818;stroke-width:1.0;"/><path d="M113.7188,37.1406 Q113.1406,37.4375 112.5,37.5781 Q111.8594,37.7344 111.1563,37.7344 Q108.6563,37.7344 107.3281,36.0938 Q106.0156,34.4375 106.0156,31.3125 Q106.0156,28.1875 107.3281,26.5313 Q108.6563,24.875 111.1563,24.875 Q111.8594,24.875 112.5,25.0313 Q113.1563,25.1875 113.7188,25.4844 L113.7188,28.2031 Q113.0938,27.625 112.5,27.3594 Q111.9063,27.0781 111.2813,27.0781 Q109.9375,27.0781 109.25,28.1563 Q108.5625,29.2188 108.5625,31.3125 Q108.5625,33.4063 109.25,34.4844 Q109.9375,35.5469 111.2813,35.5469 Q111.9063,35.5469 112.5,35.2813 Q113.0938,35 113.7188,34.4219 L113.7188,37.1406 Z " fill="#000000"/><text fill="#000000" font-family="sans-serif" font-size="14" lengthAdjust="spacing" textLength="34" x="131.25" y="36.3467">Train</text><line style="stroke:#181818;stroke-width:0.5;" x1="33" x2="231" y1="47.5" y2="47.5"/><ellipse cx="43" cy="61.1484" fill="none" rx="3" ry="3" style="stroke:#038048;stroke-width:1.0;"/><text fill="#000000" font-family="sans-serif" font-size="14" lengthAdjust="spacing" textLength="119" x="52" y="64.4951">id_train : int «PK»</text><ellipse cx="43" cy="77.4453" fill="none" rx="3" ry="3" style="stroke:#038048;stroke-width:1.0;"/><text fill="#000000" font-family="sans-serif" font-size="14" lengthAdjust="spacing" textLength="120" x="52" y="80.792">type_train : String</text><ellipse cx="43" cy="93.7422" fill="none" rx="3" ry="3" style="stroke:#038048;stroke-width:1.0;"/><text fill="#000000" font-family="sans-serif" font-size="14" lengthAdjust="spacing" textLength="167" x="52" y="97.0889">capacité_passagers : int</text><ellipse cx="43" cy="110.0391" fill="none" rx="3" ry="3" style="stroke:#038048;stroke-width:1.0;"/><text fill="#000000" font-family="sans-serif" font-size="14" lengthAdjust="spacing" textLength="174" x="52" y="113.3857">date_maintenance : Date</text><ellipse cx="43" cy="126.3359" fill="none" rx="3" ry="3" style="stroke:#038048;stroke-width:1.0;"/><text fill="#000000" font-family="sans-serif" font-size="14" lengthAdjust="spacing" textLength="154" x="52" y="129.6826">heures_cumulées : int</text><line style="stroke:#181818;stroke-width:0.5;" x1="33" x2="231" y1="136.9844" y2="136.9844"/></g><!--MD5=[a2a32eb8740a34a1508bfb05a6833e01]
class Incident--><g id="elem_Incident"><rect codeLine="26" fill="#F1F1F1" height="178.375" id="Incident" rx="2.5" ry="2.5" style="stroke:#181818;stroke-width:0.5;" width="195" x="277.5" y="230"/><ellipse cx="343.25" cy="246" fill="#ADD1B2" rx="11" ry="11" style="stroke:#181818;stroke-width:1.0;"/><path d="M346.2188,251.6406 Q345.6406,251.9375 345,252.0781 Q344.3594,252.2344 343.6563,252.2344 Q341.1563,252.2344 339.8281,250.5938 Q338.5156,248.9375 338.5156,245.8125 Q338.5156,242.6875 339.8281,241.0313 Q341.1563,239.375 343.6563,239.375 Q344.3594,239.375 345,239.5313 Q345.6563,239.6875 346.2188,239.9844 L346.2188,242.7031 Q345.5938,242.125 345,241.8594 Q344.4063,241.5781 343.7813,241.5781 Q342.4375,241.5781 341.75,242.6563 Q341.0625,243.7188 341.0625,245.8125 Q341.0625,247.9063 341.75,248.9844 Q342.4375,250.0469 343.7813,250.0469 Q344.4063,250.0469 345,249.7813 Q345.5938,249.5 346.2188,248.9219 L346.2188,251.6406 Z " fill="#000000"/><text fill="#000000" font-family="sans-serif" font-size="14" lengthAdjust="spacing" textLength="55" x="363.75" y="250.8467">Incident</text><line style="stroke:#181818;stroke-width:0.5;" x1="278.5" x2="471.5" y1="262" y2="262"/><ellipse cx="288.5" cy="275.6484" fill="none" rx="3" ry="3" style="stroke:#038048;stroke-width:1.0;"/><text fill="#000000" font-family="sans-serif" font-size="14" lengthAdjust="spacing" textLength="144" x="297.5" y="278.9951">id_incident : int «PK»</text><ellipse cx="288.5" cy="291.9453" fill="none" rx="3" ry="3" style="stroke:#038048;stroke-width:1.0;"/><text fill="#000000" font-family="sans-serif" font-size="14" lengthAdjust="spacing" textLength="145" x="297.5" y="295.292">type_incident : String</text><ellipse cx="288.5" cy="308.2422" fill="none" rx="3" ry="3" style="stroke:#038048;stroke-width:1.0;"/><text fill="#000000" font-family="sans-serif" font-size="14" lengthAdjust="spacing" textLength="169" x="297.5" y="311.5889">date_heure : Timestamp</text><ellipse cx="288.5" cy="324.5391" fill="none" rx="3" ry="3" style="stroke:#038048;stroke-width:1.0;"/><text fill="#000000" font-family="sans-serif" font-size="14" lengthAdjust="spacing" textLength="119" x="297.5" y="327.8857">durée_retard : int</text><ellipse cx="288.5" cy="340.8359" fill="none" rx="3" ry="3" style="stroke:#038048;stroke-width:1.0;"/><text fill="#000000" font-family="sans-serif" font-size="14" lengthAdjust="spacing" textLength="99" x="297.5" y="344.1826">impact : String</text><ellipse cx="288.5" cy="357.1328" fill="none" rx="3" ry="3" style="stroke:#038048;stroke-width:1.0;"/><text fill="#000000" font-family="sans-serif" font-size="14" lengthAdjust="spacing" textLength="79" x="297.5" y="360.4795">id_train : int</text><ellipse cx="288.5" cy="373.4297" fill="none" rx="3" ry="3" style="stroke:#038048;stroke-width:1.0;"/><text fill="#000000" font-family="sans-serif" font-size="14" lengthAdjust="spacing" textLength="82" x="297.5" y="376.7764">id_ligne : int</text><ellipse cx="288.5" cy="389.7266" fill="none" rx="3" ry="3" style="stroke:#038048;stroke-width:1.0;"/><text fill="#000000" font-family="sans-serif" font-size="14" lengthAdjust="spacing" textLength="80" x="297.5" y="393.0732">id_gare : int</text><line style="stroke:#181818;stroke-width:0.5;" x1="278.5" x2="471.5" y1="400.375" y2="400.375"/></g><!--MD5=[5d57f717c5d5963ea0d5127ec122f9f6]
class Trajet--><g id="elem_Trajet"><rect codeLine="37" fill="#F1F1F1" height="129.4844" id="Trajet" rx="2.5" ry="2.5" style="stroke:#181818;stroke-width:0.5;" width="218" x="7" y="254.5"/><ellipse cx="92.25" cy="270.5" fill="#ADD1B2" rx="11" ry="11" style="stroke:#181818;stroke-width:1.0;"/><path d="M95.2188,276.1406 Q94.6406,276.4375 94,276.5781 Q93.3594,276.7344 92.6563,276.7344 Q90.1563,276.7344 88.8281,275.0938 Q87.5156,273.4375 87.5156,270.3125 Q87.5156,267.1875 88.8281,265.5313 Q90.1563,263.875 92.6563,263.875 Q93.3594,263.875 94,264.0313 Q94.6563,264.1875 95.2188,264.4844 L95.2188,267.2031 Q94.5938,266.625 94,266.3594 Q93.4063,266.0781 92.7813,266.0781 Q91.4375,266.0781 90.75,267.1563 Q90.0625,268.2188 90.0625,270.3125 Q90.0625,272.4063 90.75,273.4844 Q91.4375,274.5469 92.7813,274.5469 Q93.4063,274.5469 94,274.2813 Q94.5938,274 95.2188,273.4219 L95.2188,276.1406 Z " fill="#000000"/><text fill="#000000" font-family="sans-serif" font-size="14" lengthAdjust="spacing" textLength="39" x="112.75" y="275.3467">Trajet</text><line style="stroke:#181818;stroke-width:0.5;" x1="8" x2="224" y1="286.5" y2="286.5"/><ellipse cx="18" cy="300.1484" fill="none" rx="3" ry="3" style="stroke:#038048;stroke-width:1.0;"/><text fill="#000000" font-family="sans-serif" font-size="14" lengthAdjust="spacing" textLength="124" x="27" y="303.4951">id_trajet : int «PK»</text><ellipse cx="18" cy="316.4453" fill="none" rx="3" ry="3" style="stroke:#038048;stroke-width:1.0;"/><text fill="#000000" font-family="sans-serif" font-size="14" lengthAdjust="spacing" textLength="192" x="27" y="319.792">id_ligne : int   ' FK vers Ligne</text><ellipse cx="18" cy="332.7422" fill="none" rx="3" ry="3" style="stroke:#038048;stroke-width:1.0;"/><text fill="#000000" font-family="sans-serif" font-size="14" lengthAdjust="spacing" textLength="186" x="27" y="336.0889">id_train : int   ' FK vers Train</text><ellipse cx="18" cy="349.0391" fill="none" rx="3" ry="3" style="stroke:#038048;stroke-width:1.0;"/><text fill="#000000" font-family="sans-serif" font-size="14" lengthAdjust="spacing" textLength="190" x="27" y="352.3857">horaire_départ : Timestamp</text><ellipse cx="18" cy="365.3359" fill="none" rx="3" ry="3" style="stroke:#038048;stroke-width:1.0;"/><text fill="#000000" font-family="sans-serif" font-size="14" lengthAdjust="spacing" textLength="191" x="27" y="368.6826">horaire_arrivée : Timestamp</text><line style="stroke:#181818;stroke-width:0.5;" x1="8" x2="224" y1="375.9844" y2="375.9844"/></g><!--MD5=[220eb97dd738422dcfb96be6c83c4129]
class Segment--><g id="elem_Segment"><rect codeLine="45" fill="#F1F1F1" height="113.1875" id="Segment" rx="2.5" ry="2.5" style="stroke:#181818;stroke-width:0.5;" width="264" x="780" y="262.5"/><ellipse cx="876.25" cy="278.5" fill="#ADD1B2" rx="11" ry="11" style="stroke:#181818;stroke-width:1.0;"/><path d="M879.2188,284.1406 Q878.6406,284.4375 878,284.5781 Q877.3594,284.7344 876.6563,284.7344 Q874.1563,284.7344 872.8281,283.0938 Q871.5156,281.4375 871.5156,278.3125 Q871.5156,275.1875 872.8281,273.5313 Q874.1563,271.875 876.6563,271.875 Q877.3594,271.875 878,272.0313 Q878.6563,272.1875 879.2188,272.4844 L879.2188,275.2031 Q878.5938,274.625 878,274.3594 Q877.4063,274.0781 876.7813,274.0781 Q875.4375,274.0781 874.75,275.1563 Q874.0625,276.2188 874.0625,278.3125 Q874.0625,280.4063 874.75,281.4844 Q875.4375,282.5469 876.7813,282.5469 Q877.4063,282.5469 878,282.2813 Q878.5938,282 879.2188,281.4219 L879.2188,284.1406 Z " fill="#000000"/><text fill="#000000" font-family="sans-serif" font-size="14" lengthAdjust="spacing" textLength="63" x="896.75" y="283.3467">Segment</text><line style="stroke:#181818;stroke-width:0.5;" x1="781" x2="1043" y1="294.5" y2="294.5"/><ellipse cx="791" cy="308.1484" fill="none" rx="3" ry="3" style="stroke:#038048;stroke-width:1.0;"/><text fill="#000000" font-family="sans-serif" font-size="14" lengthAdjust="spacing" textLength="151" x="800" y="311.4951">id_segment : int «PK»</text><ellipse cx="791" cy="324.4453" fill="none" rx="3" ry="3" style="stroke:#038048;stroke-width:1.0;"/><text fill="#000000" font-family="sans-serif" font-size="14" lengthAdjust="spacing" textLength="238" x="800" y="327.792">id_gare_départ : int   ' FK vers Gare</text><ellipse cx="791" cy="340.7422" fill="none" rx="3" ry="3" style="stroke:#038048;stroke-width:1.0;"/><text fill="#000000" font-family="sans-serif" font-size="14" lengthAdjust="spacing" textLength="235" x="800" y="344.0889">id_gare_arrivée : int  ' FK vers Gare</text><ellipse cx="791" cy="357.0391" fill="none" rx="3" ry="3" style="stroke:#038048;stroke-width:1.0;"/><text fill="#000000" font-family="sans-serif" font-size="14" lengthAdjust="spacing" textLength="142" x="800" y="360.3857">temps_parcours : int</text><line style="stroke:#181818;stroke-width:0.5;" x1="781" x2="1043" y1="367.6875" y2="367.6875"/></g><!--MD5=[941b7aeffb035281a8311db077b9e408]
class Passage--><g id="elem_Passage"><rect codeLine="52" fill="#F1F1F1" height="129.4844" id="Passage" rx="2.5" ry="2.5" style="stroke:#181818;stroke-width:0.5;" width="218" x="521" y="254.5"/><ellipse cx="596.25" cy="270.5" fill="#ADD1B2" rx="11" ry="11" style="stroke:#181818;stroke-width:1.0;"/><path d="M599.2188,276.1406 Q598.6406,276.4375 598,276.5781 Q597.3594,276.7344 596.6563,276.7344 Q594.1563,276.7344 592.8281,275.0938 Q591.5156,273.4375 591.5156,270.3125 Q591.5156,267.1875 592.8281,265.5313 Q594.1563,263.875 596.6563,263.875 Q597.3594,263.875 598,264.0313 Q598.6563,264.1875 599.2188,264.4844 L599.2188,267.2031 Q598.5938,266.625 598,266.3594 Q597.4063,266.0781 596.7813,266.0781 Q595.4375,266.0781 594.75,267.1563 Q594.0625,268.2188 594.0625,270.3125 Q594.0625,272.4063 594.75,273.4844 Q595.4375,274.5469 596.7813,274.5469 Q597.4063,274.5469 598,274.2813 Q598.5938,274 599.2188,273.4219 L599.2188,276.1406 Z " fill="#000000"/><text fill="#000000" font-family="sans-serif" font-size="14" lengthAdjust="spacing" textLength="59" x="616.75" y="275.3467">Passage</text><line style="stroke:#181818;stroke-width:0.5;" x1="522" x2="738" y1="286.5" y2="286.5"/><ellipse cx="532" cy="300.1484" fill="none" rx="3" ry="3" style="stroke:#038048;stroke-width:1.0;"/><text fill="#000000" font-family="sans-serif" font-size="14" lengthAdjust="spacing" textLength="148" x="541" y="303.4951">id_passage : int «PK»</text><ellipse cx="532" cy="316.4453" fill="none" rx="3" ry="3" style="stroke:#038048;stroke-width:1.0;"/><text fill="#000000" font-family="sans-serif" font-size="14" lengthAdjust="spacing" textLength="192" x="541" y="319.792">id_ligne : int   ' FK vers Ligne</text><ellipse cx="532" cy="332.7422" fill="none" rx="3" ry="3" style="stroke:#038048;stroke-width:1.0;"/><text fill="#000000" font-family="sans-serif" font-size="14" lengthAdjust="spacing" textLength="190" x="541" y="336.0889">id_gare : int    ' FK vers Gare</text><ellipse cx="532" cy="349.0391" fill="none" rx="3" ry="3" style="stroke:#038048;stroke-width:1.0;"/><text fill="#000000" font-family="sans-serif" font-size="14" lengthAdjust="spacing" textLength="148" x="541" y="352.3857">ordre_dans_ligne : int</text><ellipse cx="532" cy="365.3359" fill="none" rx="3" ry="3" style="stroke:#038048;stroke-width:1.0;"/><text fill="#000000" font-family="sans-serif" font-size="14" lengthAdjust="spacing" textLength="185" x="541" y="368.6826">temps_attente_moyen : int</text><line style="stroke:#181818;stroke-width:0.5;" x1="522" x2="738" y1="375.9844" y2="375.9844"/></g><!--MD5=[a56acf849e9f99d5c9a329b1e55ebb75]
link Ligne to Passage--><g id="link_Ligne_Passage"><path codeLine="63" d="M412.6,128.7 C431.29,151.26 454.8,178.01 478,200 C497.76,218.73 520.34,237.5 541.95,254.38 " fill="none" id="Ligne-Passage" style="stroke:#181818;stroke-width:1.0;"/><text fill="#000000" font-family="sans-serif" font-size="13" lengthAdjust="spacing" textLength="52" x="479" y="196.0669">contient</text><text fill="#000000" font-family="sans-serif" font-size="13" lengthAdjust="spacing" textLength="8" x="409.115" y="148.335">1</text><text fill="#000000" font-family="sans-serif" font-size="13" lengthAdjust="spacing" textLength="23" x="508.0617" y="243.5395">0..*</text></g><!--MD5=[c590be567523e1b9d7caf7788aafa7d8]
link Gare to Passage--><g id="link_Gare_Passage"><path codeLine="66" d="M696.7,153.19 C689.91,162.9 683.48,172.98 678,183 C665.83,205.26 655.74,231.22 648,254.39 " fill="none" id="Gare-Passage" style="stroke:#181818;stroke-width:1.0;"/><text fill="#000000" font-family="sans-serif" font-size="13" lengthAdjust="spacing" textLength="110" x="679" y="196.0669">est desservie par</text><text fill="#000000" font-family="sans-serif" font-size="13" lengthAdjust="spacing" textLength="8" x="682.5714" y="172.9644">1</text><text fill="#000000" font-family="sans-serif" font-size="13" lengthAdjust="spacing" textLength="23" x="625.7109" y="243.5506">0..*</text></g><!--MD5=[7f43cd5ebaf9387098d0ec058f514f80]
link Ligne to Trajet--><g id="link_Ligne_Trajet"><path codeLine="69" d="M328.51,128.77 C306.6,150.85 279.86,177.19 255,200 C235.29,218.09 213.45,237.09 193.03,254.43 " fill="none" id="Ligne-Trajet" style="stroke:#181818;stroke-width:1.0;"/><text fill="#000000" font-family="sans-serif" font-size="13" lengthAdjust="spacing" textLength="39" x="273" y="196.0669">définit</text><text fill="#000000" font-family="sans-serif" font-size="13" lengthAdjust="spacing" textLength="8" x="313.7254" y="148.4144">1</text><text fill="#000000" font-family="sans-serif" font-size="13" lengthAdjust="spacing" textLength="23" x="177.1973" y="243.595">0..*</text></g><!--MD5=[789dcc088d1fa6c452d1bcef593c8f03]
link Train to Trajet--><g id="link_Train_Trajet"><path codeLine="72" d="M105.85,144.59 C101.76,157.12 98.17,170.32 96,183 C92.02,206.24 94.15,231.8 98.25,254.38 " fill="none" id="Train-Trajet" style="stroke:#181818;stroke-width:1.0;"/><text fill="#000000" font-family="sans-serif" font-size="13" lengthAdjust="spacing" textLength="52" x="97" y="196.0669">effectue</text><text fill="#000000" font-family="sans-serif" font-size="13" lengthAdjust="spacing" textLength="8" x="94.3639" y="164.972">1</text><text fill="#000000" font-family="sans-serif" font-size="13" lengthAdjust="spacing" textLength="23" x="72.0508" y="243.5395">0..*</text></g><!--MD5=[cf5642e41ebccbc7e75a2b8d82d8c248]
link Train to Incident--><g id="link_Train_Incident"><path codeLine="75" d="M154.58,144.67 C163.53,163.96 175.27,184.2 190,200 C208.2,219.51 219.31,215.97 242,230 C253.54,237.14 265.53,244.76 277.38,252.44 " fill="none" id="Train-Incident" style="stroke:#181818;stroke-width:1.0;"/><text fill="#000000" font-family="sans-serif" font-size="13" lengthAdjust="spacing" textLength="59" x="191" y="196.0669">concerne</text><text fill="#000000" font-family="sans-serif" font-size="13" lengthAdjust="spacing" textLength="8" x="148.7283" y="165.0612">1</text><text fill="#000000" font-family="sans-serif" font-size="13" lengthAdjust="spacing" textLength="23" x="246.3665" y="244.0592">0..*</text></g><!--MD5=[89aeed204cc3d7c0dcd85a20748b29ac]
link Ligne to Incident--><g id="link_Ligne_Incident"><path codeLine="78" d="M373.31,128.73 C372.78,145.85 372.26,165.29 372,183 C371.78,198.12 371.86,214.19 372.1,229.77 " fill="none" id="Ligne-Incident" style="stroke:#181818;stroke-width:1.0;"/><text fill="#000000" font-family="sans-serif" font-size="13" lengthAdjust="spacing" textLength="64" x="373" y="196.0669">peut subir</text><text fill="#000000" font-family="sans-serif" font-size="13" lengthAdjust="spacing" textLength="8" x="364.5454" y="148.3691">1</text><text fill="#000000" font-family="sans-serif" font-size="13" lengthAdjust="spacing" textLength="23" x="347.9075" y="218.8164">0..*</text></g><!--MD5=[2f51850f40c8bd7ff04122db27db8dc9]
link Gare to Incident--><g id="link_Gare_Incident"><path codeLine="81" d="M671.42,129.16 C621.72,157.64 558.22,194.89 503,230 C493.1,236.29 482.87,242.99 472.71,249.77 " fill="none" id="Gare-Incident" style="stroke:#181818;stroke-width:1.0;"/><text fill="#000000" font-family="sans-serif" font-size="13" lengthAdjust="spacing" textLength="64" x="580" y="196.0669">peut subir</text><text fill="#000000" font-family="sans-serif" font-size="13" lengthAdjust="spacing" textLength="8" x="655.4418" y="129.9529">1</text><text fill="#000000" font-family="sans-serif" font-size="13" lengthAdjust="spacing" textLength="23" x="480.3888" y="241.4333">0..*</text></g><!--MD5=[872ea2fa8e94f52206bd740a071e5d3a]
link Gare to Segment--><g id="link_Gare_Segment"><path codeLine="84" d="M842.79,139.59 C856.9,152.48 870.12,167.09 880,183 C894.74,206.74 902.69,236.68 906.98,262.33 " fill="none" id="Gare-Segment" style="stroke:#181818;stroke-width:1.0;"/><text fill="#000000" font-family="sans-serif" font-size="13" lengthAdjust="spacing" textLength="42" x="889" y="196.0669">départ</text><text fill="#000000" font-family="sans-serif" font-size="13" lengthAdjust="spacing" textLength="8" x="850.5063" y="141.1485">1</text><text fill="#000000" font-family="sans-serif" font-size="13" lengthAdjust="spacing" textLength="23" x="881.9666" y="251.5728">0..*</text></g><!--MD5=[872ea2fa8e94f52206bd740a071e5d3a]
link Gare to Segment--><g id="link_Gare_Segment"><path codeLine="85" d="M797.22,153.15 C806.38,168.79 816.29,185.09 826,200 C839.57,220.81 855.35,242.98 869.66,262.42 " fill="none" id="Gare-Segment-1" style="stroke:#181818;stroke-width:1.0;"/><text fill="#000000" font-family="sans-serif" font-size="13" lengthAdjust="spacing" textLength="44" x="827" y="196.0669">arrivée</text><text fill="#000000" font-family="sans-serif" font-size="13" lengthAdjust="spacing" textLength="8" x="792.6722" y="172.9206">1</text><text fill="#000000" font-family="sans-serif" font-size="13" lengthAdjust="spacing" textLength="23" x="839.7618" y="251.2731">0..*</text></g><!--MD5=[0dc24e48578c72cee67a21f34ca26085]
@startuml
' Définition des classes correspondant aux tables

class Gare {
  + id_gare : int <<PK>>
  + nom : String
  + localisation : Point
  + équipements : Text[]
  + nb_quais : int
  + capacité_max : int
}

class Ligne {
  + id_ligne : int <<PK>>
  + nom_ligne : String
  + type_ligne : String
}

class Train {
  + id_train : int <<PK>>
  + type_train : String
  + capacité_passagers : int
  + date_maintenance : Date
  + heures_cumulées : int
}

class Incident {
  + id_incident : int <<PK>>
  + type_incident : String
  + date_heure : Timestamp
  + durée_retard : int
  + impact : String
  + id_train : int   
  + id_ligne : int   
  + id_gare : int    
}

class Trajet {
  + id_trajet : int <<PK>>
  + id_ligne : int   ' FK vers Ligne
  + id_train : int   ' FK vers Train
  + horaire_départ : Timestamp
  + horaire_arrivée : Timestamp
}

class Segment {
  + id_segment : int <<PK>>
  + id_gare_départ : int   ' FK vers Gare
  + id_gare_arrivée : int  ' FK vers Gare
  + temps_parcours : int
}

class Passage {
  + id_passage : int <<PK>>
  + id_ligne : int   ' FK vers Ligne
  + id_gare : int    ' FK vers Gare
  + ordre_dans_ligne : int
  + temps_attente_moyen : int
}

' Associations entre les tables

' Une Ligne est composée de plusieurs passages (les gares desservies dans l'ordre)
Ligne "1" - - "0..*" Passage : "contient"

' Une Gare est desservie par plusieurs passages
Gare "1" - - "0..*" Passage : "est desservie par"

' Une Ligne peut avoir plusieurs trajets programmés
Ligne "1" - - "0..*" Trajet : "définit"

' Un Train effectue un ou plusieurs trajets
Train "1" - - "0..*" Trajet : "effectue"

' Un Train peut être associé à plusieurs incidents
Train "1" - - "0..*" Incident : "concerne" 

' Une Ligne peut être affectée par plusieurs incidents
Ligne "1" - - "0..*" Incident : "peut subir"

' Une Gare peut être concernée par plusieurs incidents
Gare "1" - - "0..*" Incident : "peut subir"

' Un Segment relie deux gares : départ et arrivée
Gare "1" - - "0..*" Segment : "départ" 
Gare "1" - - "0..*" Segment : "arrivée"
@enduml

@startuml

class Gare {
  + id_gare : int <<PK>>
  + nom : String
  + localisation : Point
  + équipements : Text[]
  + nb_quais : int
  + capacité_max : int
}

class Ligne {
  + id_ligne : int <<PK>>
  + nom_ligne : String
  + type_ligne : String
}

class Train {
  + id_train : int <<PK>>
  + type_train : String
  + capacité_passagers : int
  + date_maintenance : Date
  + heures_cumulées : int
}

class Incident {
  + id_incident : int <<PK>>
  + type_incident : String
  + date_heure : Timestamp
  + durée_retard : int
  + impact : String
  + id_train : int   
  + id_ligne : int   
  + id_gare : int    
}

class Trajet {
  + id_trajet : int <<PK>>
  + id_ligne : int   ' FK vers Ligne
  + id_train : int   ' FK vers Train
  + horaire_départ : Timestamp
  + horaire_arrivée : Timestamp
}

class Segment {
  + id_segment : int <<PK>>
  + id_gare_départ : int   ' FK vers Gare
  + id_gare_arrivée : int  ' FK vers Gare
  + temps_parcours : int
}

class Passage {
  + id_passage : int <<PK>>
  + id_ligne : int   ' FK vers Ligne
  + id_gare : int    ' FK vers Gare
  + ordre_dans_ligne : int
  + temps_attente_moyen : int
}


Ligne "1" - - "0..*" Passage : "contient"

Gare "1" - - "0..*" Passage : "est desservie par"

Ligne "1" - - "0..*" Trajet : "définit"

Train "1" - - "0..*" Trajet : "effectue"

Train "1" - - "0..*" Incident : "concerne" 

Ligne "1" - - "0..*" Incident : "peut subir"

Gare "1" - - "0..*" Incident : "peut subir"

Gare "1" - - "0..*" Segment : "départ" 
Gare "1" - - "0..*" Segment : "arrivée"
@enduml

PlantUML version 1.2022.7(Mon Aug 22 17:01:30 UTC 2022)
(GPL source distribution)
Java Runtime: OpenJDK Runtime Environment
JVM: OpenJDK 64-Bit Server VM
Default Encoding: UTF-8
Language: en
Country: null
--></g></svg>